<?xml version="1.0" encoding="UTF-8"?>
<svg width="410" height="262" xmlns="http://www.w3.org/2000/svg">
<style>text {
    color: #a89f9bff;
}

tspan {
    fill: #f3f3f3;
}

/* @media (prefers-color-scheme: dark) {
}
@media (prefers-color-scheme: light) {
    tspan {
        fill: #333;
        fill: #f3f3f3;
    }
} */

@keyframes fadeIn {
    from {
        opacity: 0;
    }
    to {
        opacity: 1;
    }
}
@keyframes slideIn {
    from {
        width: 0;
    }
    to {
        width: 660;
    }
}

#lang_legend,
#title {
    opacity: 0;
    animation: fadeIn 1s ease-in forwards;
}
#bar_back {
    animation: slideIn 1.7s ease-in forwards;
}
</style>
<rect id="border" x="1" y="1" width="408" height="260" fill='#000000' stroke-width="1" rx="15" ry="15" />

<defs>
    <clipPath id="roundedClip">
        <rect id="bar_back" x="20" y="20" width="370" height="10" rx="5" ry="5">
        </rect>
    </clipPath>
</defs>
<rect width="370" height="10" x="20" y="20" rx="5" ry="5" fill='#ccc' />
<g clip-path="url(#roundedClip)">
    <rect x="20" y="20" width="230" height="10" fill="#f34b7d"> <title>C++ 62.26%</title> </rect>
    <rect x="250" y="20" width="50" height="10" fill="#555555"> <title>C 13.39%</title> </rect>
    <rect x="300" y="20" width="22" height="10" fill="#e34c26"> <title>HTML 5.89%</title> </rect>
    <rect x="322" y="20" width="18" height="10" fill="#4F5D95"> <title>PHP 4.83%</title> </rect>
    <rect x="340" y="20" width="18" height="10" fill="#00ADD8"> <title>Go 4.81%</title> </rect>
    <rect x="358" y="20" width="10" height="10" fill="#663399"> <title>CSS 2.70%</title> </rect>
    <rect x="368" y="20" width="8" height="10" fill="#DA3434"> <title>CMake 2.26%</title> </rect>
    <rect x="376" y="20" width="3" height="10" fill="#dd1100"> <title>Mathematica 0.83%</title> </rect>
    <rect x="379" y="20" width="2" height="10" fill="#012456"> <title>PowerShell 0.59%</title> </rect>
    <rect x="381" y="20" width="2" height="10" fill="#178600"> <title>C# 0.50%</title> </rect>
    <rect x="383" y="20" width="2" height="10" fill="#3572A5"> <title>Python 0.45%</title> </rect>
    <rect x="385" y="20" width="2" height="10" fill="#f1e05a"> <title>JavaScript 0.44%</title> </rect>
    <rect x="387" y="20" width="2" height="10" fill="#dea584"> <title>Rust 0.42%</title> </rect>
    <rect x="389" y="20" width="1" height="10" fill="#b07219"> <title>Java 0.39%</title> </rect>
    <rect x="390" y="20" width="1" height="10" fill="#89e051"> <title>Shell 0.19%</title> </rect>
    <rect x="391" y="20" width="0" height="10" fill="#878787"> <title>Hack 0.06%</title> </rect>
</g>
<g id="lang_legend">
<circle cx="30" cy="60" r="6" fill="#f34b7d" />
<text x="46" y="64" font-size="13" font-family="system-ui, -apple-system, sans-serif" fill='currentColor'><tspan>C++</tspan> 62.26%</text>
<circle cx="225" cy="60" r="6" fill="#555555" />
<text x="241" y="64" font-size="13" font-family="system-ui, -apple-system, sans-serif" fill='currentColor'><tspan>C</tspan> 13.39%</text>
<circle cx="30" cy="84" r="6" fill="#e34c26" />
<text x="46" y="88" font-size="13" font-family="system-ui, -apple-system, sans-serif" fill='currentColor'><tspan>HTML</tspan> 5.89%</text>
<circle cx="225" cy="84" r="6" fill="#4F5D95" />
<text x="241" y="88" font-size="13" font-family="system-ui, -apple-system, sans-serif" fill='currentColor'><tspan>PHP</tspan> 4.83%</text>
<circle cx="30" cy="108" r="6" fill="#00ADD8" />
<text x="46" y="112" font-size="13" font-family="system-ui, -apple-system, sans-serif" fill='currentColor'><tspan>Go</tspan> 4.81%</text>
<circle cx="225" cy="108" r="6" fill="#663399" />
<text x="241" y="112" font-size="13" font-family="system-ui, -apple-system, sans-serif" fill='currentColor'><tspan>CSS</tspan> 2.70%</text>
<circle cx="30" cy="132" r="6" fill="#DA3434" />
<text x="46" y="136" font-size="13" font-family="system-ui, -apple-system, sans-serif" fill='currentColor'><tspan>CMake</tspan> 2.26%</text>
<circle cx="225" cy="132" r="6" fill="#dd1100" />
<text x="241" y="136" font-size="13" font-family="system-ui, -apple-system, sans-serif" fill='currentColor'><tspan>Mathematica</tspan> 0.83%</text>
<circle cx="30" cy="156" r="6" fill="#012456" />
<text x="46" y="160" font-size="13" font-family="system-ui, -apple-system, sans-serif" fill='currentColor'><tspan>PowerShell</tspan> 0.59%</text>
<circle cx="225" cy="156" r="6" fill="#178600" />
<text x="241" y="160" font-size="13" font-family="system-ui, -apple-system, sans-serif" fill='currentColor'><tspan>C#</tspan> 0.50%</text>
<circle cx="30" cy="180" r="6" fill="#3572A5" />
<text x="46" y="184" font-size="13" font-family="system-ui, -apple-system, sans-serif" fill='currentColor'><tspan>Python</tspan> 0.45%</text>
<circle cx="225" cy="180" r="6" fill="#f1e05a" />
<text x="241" y="184" font-size="13" font-family="system-ui, -apple-system, sans-serif" fill='currentColor'><tspan>JavaScript</tspan> 0.44%</text>
<circle cx="30" cy="204" r="6" fill="#dea584" />
<text x="46" y="208" font-size="13" font-family="system-ui, -apple-system, sans-serif" fill='currentColor'><tspan>Rust</tspan> 0.42%</text>
<circle cx="225" cy="204" r="6" fill="#b07219" />
<text x="241" y="208" font-size="13" font-family="system-ui, -apple-system, sans-serif" fill='currentColor'><tspan>Java</tspan> 0.39%</text>
<circle cx="30" cy="228" r="6" fill="#89e051" />
<text x="46" y="232" font-size="13" font-family="system-ui, -apple-system, sans-serif" fill='currentColor'><tspan>Shell</tspan> 0.19%</text>
<circle cx="225" cy="228" r="6" fill="#878787" />
<text x="241" y="232" font-size="13" font-family="system-ui, -apple-system, sans-serif" fill='currentColor'><tspan>Hack</tspan> 0.06%</text>
</g>
</svg>
