<?xml version="1.0" encoding="UTF-8"?>
<svg width="880" height="188" xmlns="http://www.w3.org/2000/svg">
<style>text {
    color: #a89f9bff;
}

tspan {
    fill: #f3f3f3;
}

/* @media (prefers-color-scheme: dark) {
}
@media (prefers-color-scheme: light) {
    tspan {
        fill: #333;
        fill: #f3f3f3;
    }
} */

@keyframes fadeIn {
    from {
        opacity: 0;
    }
    to {
        opacity: 1;
    }
}
@keyframes slideIn {
    from {
        width: 0;
    }
    to {
        width: 660;
    }
}

#lang_legend,
#title {
    opacity: 0;
    animation: fadeIn 1s ease-in forwards;
}
#bar_back {
    animation: slideIn 1.7s ease-in forwards;
}
</style>
<style>
  text { fill: #24292f; }
  @media (prefers-color-scheme: dark) {
    text { fill: #e6edf3; }
  }
</style>

<defs>
    <clipPath id="roundedClip">
        <rect x="20" y="29" width="840" height="10" rx="5" ry="5" />
    </clipPath>
</defs>
<rect width="840" height="10" x="20" y="29" rx="5" ry="5">
  <style>rect { fill: #e1e4e8; } @media (prefers-color-scheme: dark) { rect { fill: #30363d; } }</style>
</rect>
<g clip-path="url(#roundedClip)">
    <rect x="20" y="29" width="523" height="10" fill="#f34b7d"><title>C++ 62.26%</title></rect>
    <rect x="543" y="29" width="113" height="10" fill="#555555"><title>C 13.39%</title></rect>
    <rect x="656" y="29" width="49" height="10" fill="#e34c26"><title>HTML 5.89%</title></rect>
    <rect x="705" y="29" width="41" height="10" fill="#4F5D95"><title>PHP 4.83%</title></rect>
    <rect x="746" y="29" width="40" height="10" fill="#00ADD8"><title>Go 4.81%</title></rect>
    <rect x="786" y="29" width="23" height="10" fill="#663399"><title>CSS 2.70%</title></rect>
    <rect x="809" y="29" width="19" height="10" fill="#DA3434"><title>CMake 2.26%</title></rect>
    <rect x="828" y="29" width="7" height="10" fill="#dd1100"><title>Mathematica 0.83%</title></rect>
    <rect x="835" y="29" width="5" height="10" fill="#012456"><title>PowerShell 0.59%</title></rect>
    <rect x="840" y="29" width="4" height="10" fill="#178600"><title>C# 0.50%</title></rect>
    <rect x="844" y="29" width="4" height="10" fill="#3572A5"><title>Python 0.45%</title></rect>
    <rect x="848" y="29" width="4" height="10" fill="#f1e05a"><title>JavaScript 0.44%</title></rect>
    <rect x="852" y="29" width="4" height="10" fill="#dea584"><title>Rust 0.42%</title></rect>
    <rect x="856" y="29" width="3" height="10" fill="#b07219"><title>Java 0.39%</title></rect>
    <rect x="859" y="29" width="2" height="10" fill="#89e051"><title>Shell 0.19%</title></rect>
    <rect x="861" y="29" width="1" height="10" fill="#878787"><title>Hack 0.06%</title></rect>
</g>
<g id="lang_legend">
<circle cx="26" cy="65" r="6" fill="#f34b7d" />
<text x="40" y="70" font-size="13" font-family="system-ui, -apple-system, sans-serif"><tspan font-weight="600">C++</tspan>  62.26%</text>
<circle cx="236" cy="65" r="6" fill="#555555" />
<text x="250" y="70" font-size="13" font-family="system-ui, -apple-system, sans-serif"><tspan font-weight="600">C</tspan>  13.39%</text>
<circle cx="446" cy="65" r="6" fill="#e34c26" />
<text x="460" y="70" font-size="13" font-family="system-ui, -apple-system, sans-serif"><tspan font-weight="600">HTML</tspan>  5.89%</text>
<circle cx="656" cy="65" r="6" fill="#4F5D95" />
<text x="670" y="70" font-size="13" font-family="system-ui, -apple-system, sans-serif"><tspan font-weight="600">PHP</tspan>  4.83%</text>
<circle cx="26" cy="93" r="6" fill="#00ADD8" />
<text x="40" y="98" font-size="13" font-family="system-ui, -apple-system, sans-serif"><tspan font-weight="600">Go</tspan>  4.81%</text>
<circle cx="236" cy="93" r="6" fill="#663399" />
<text x="250" y="98" font-size="13" font-family="system-ui, -apple-system, sans-serif"><tspan font-weight="600">CSS</tspan>  2.70%</text>
<circle cx="446" cy="93" r="6" fill="#DA3434" />
<text x="460" y="98" font-size="13" font-family="system-ui, -apple-system, sans-serif"><tspan font-weight="600">CMake</tspan>  2.26%</text>
<circle cx="656" cy="93" r="6" fill="#dd1100" />
<text x="670" y="98" font-size="13" font-family="system-ui, -apple-system, sans-serif"><tspan font-weight="600">Mathematica</tspan>  0.83%</text>
<circle cx="26" cy="121" r="6" fill="#012456" />
<text x="40" y="126" font-size="13" font-family="system-ui, -apple-system, sans-serif"><tspan font-weight="600">PowerShell</tspan>  0.59%</text>
<circle cx="236" cy="121" r="6" fill="#178600" />
<text x="250" y="126" font-size="13" font-family="system-ui, -apple-system, sans-serif"><tspan font-weight="600">C#</tspan>  0.50%</text>
<circle cx="446" cy="121" r="6" fill="#3572A5" />
<text x="460" y="126" font-size="13" font-family="system-ui, -apple-system, sans-serif"><tspan font-weight="600">Python</tspan>  0.45%</text>
<circle cx="656" cy="121" r="6" fill="#f1e05a" />
<text x="670" y="126" font-size="13" font-family="system-ui, -apple-system, sans-serif"><tspan font-weight="600">JavaScript</tspan>  0.44%</text>
<circle cx="26" cy="149" r="6" fill="#dea584" />
<text x="40" y="154" font-size="13" font-family="system-ui, -apple-system, sans-serif"><tspan font-weight="600">Rust</tspan>  0.42%</text>
<circle cx="236" cy="149" r="6" fill="#b07219" />
<text x="250" y="154" font-size="13" font-family="system-ui, -apple-system, sans-serif"><tspan font-weight="600">Java</tspan>  0.39%</text>
<circle cx="446" cy="149" r="6" fill="#89e051" />
<text x="460" y="154" font-size="13" font-family="system-ui, -apple-system, sans-serif"><tspan font-weight="600">Shell</tspan>  0.19%</text>
<circle cx="656" cy="149" r="6" fill="#878787" />
<text x="670" y="154" font-size="13" font-family="system-ui, -apple-system, sans-serif"><tspan font-weight="600">Hack</tspan>  0.06%</text>
</g>
</svg>
